<?xml version="1.0" encoding="UTF-8"?><svg id="Layer_2" xmlns="http://www.w3.org/2000/svg" viewBox="0 0 1088.58 262.3"><defs><style>.cls-1{fill:#1d1d1b;}.cls-2{isolation:isolate;}</style></defs><g id="Layer_2-2"><g class="cls-2"><path class="cls-1" d="M0,103.21H36.37v6.25H6.32v16.29h26.68v6.25H6.32v24.01H0v-52.79Z"/><path class="cls-1" d="M42.26,118.09h6.32v4.84c3.09-4,6.81-5.48,12.64-5.12v7.23c-8-.42-12.64,3.58-12.64,11.02v19.94h-6.32v-37.91Z"/><path class="cls-1" d="M64.23,137.19c0-11.3,8.42-19.73,19.38-19.73s19.38,8.42,19.38,19.73-8.42,19.66-19.38,19.66-19.38-8.35-19.38-19.66Zm32.15,0c0-7.65-5.69-13.48-12.78-13.48s-12.78,5.83-12.78,13.48,5.69,13.55,12.78,13.55,12.78-5.9,12.78-13.55Z"/><path class="cls-1" d="M109.3,118.09h6.39v4.7c3.16-3.58,7.02-5.34,10.95-5.34,4.28,0,7.86,2.18,10.46,6.53,3.37-4.28,7.65-6.53,12.57-6.53,7.44,0,12.29,5.2,12.29,13.34v25.2h-6.32v-24.22c0-5.34-2.25-8.21-6.32-8.21-4.56,0-9.34,3.58-10.46,8.14v24.29h-6.32v-24.08c0-5.34-2.53-8.35-6.53-8.35-4.35,0-9.2,3.79-10.32,8.35v24.08h-6.39v-37.91Z"/></g><g class="cls-2"><path class="cls-1" d="M227.72,186.95l13.98-49.14c0-.44,.07-.73,.22-.87l1.09-1.75,28.39-42.37,.66-.87,40.4-33.42,.87-.44,41.06-14.2c.29-.29,.44-.29,.44,0,0-.14,.14-.22,.44-.22h27.74v5.24h-26.86l-40.19,14.63-39.53,32.76-28.39,42.15-.66,1.09-13.54,48.27v1.97l6.99,45.86,.66,1.75,15.51,21.4-2.4,1.75-2.4,1.75-15.72-21.62c-.15,0-.22-.07-.22-.22s-.07-.29-.22-.44l-.87-2.4-.22-.44v-.22l-6.99-46.74-.22-3.28Z"/></g><g class="cls-2"><path class="cls-1" d="M385.43,103.21h7.44l20.5,52.79h-6.74l-5.9-15.23h-23.24l-5.83,15.23h-6.88l20.64-52.79Zm12.78,31.38l-8.99-23.73-9.2,23.73h18.18Z"/></g><g class="cls-2"><path class="cls-1" d="M429.6,218.18l-3.28,.22h-25.33v-5.9h25.33l1.97-.22,44.12-13.98,1.97-.87,37.13-33.42,.87-1.31,25.12-43.9,12.01-49.79-5.24-42.15-12.01-24.02,5.46-2.84,12.45,25.99,5.46,42.81-.22,1.09-12.23,51.32-26.86,46.52-.66,.66-38,34.07-3.06,1.31-44.99,14.41Z"/></g><g class="cls-2"><path class="cls-1" d="M633.29,147.65v-23.45h-6.18v-6.11h6.18v-10.6h6.32v10.6h7.51v6.11h-7.51v22.54c0,3.16,1.4,3.79,3.44,3.79h4.42v6.04c-1.4,.14-3.16,.28-4.71,.28-6.74,0-9.48-2.6-9.48-9.2Z"/><path class="cls-1" d="M652.25,137.19c0-11.3,8.42-19.73,19.38-19.73s19.38,8.42,19.38,19.73-8.42,19.66-19.38,19.66-19.38-8.35-19.38-19.66Zm32.15,0c0-7.65-5.69-13.48-12.78-13.48s-12.78,5.83-12.78,13.48,5.69,13.55,12.78,13.55,12.78-5.9,12.78-13.55Z"/></g><g class="cls-2"><path class="cls-1" d="M763.05,186.95l13.98-49.14c0-.44,.07-.73,.22-.87l1.09-1.75,28.39-42.37,.66-.87,40.4-33.42,.87-.44,41.06-14.2c.29-.29,.44-.29,.44,0,0-.14,.14-.22,.44-.22h27.74v5.24h-26.86l-40.19,14.63-39.53,32.76-28.39,42.15-.66,1.09-13.54,48.27v1.97l6.99,45.86,.66,1.75,15.51,21.4-2.4,1.75-2.4,1.75-15.72-21.62c-.15,0-.22-.07-.22-.22s-.08-.29-.22-.44l-.87-2.4-.22-.44v-.22l-6.99-46.74-.22-3.28Z"/></g><g class="cls-2"><path class="cls-1" d="M930.47,128.69l-17.48-25.49h7.58l13.9,20.15,13.55-20.15h7.65l-17.55,25.55,18.82,27.24h-7.72l-14.74-21.9-15.02,21.9h-7.79l18.82-27.31Z"/></g><g class="cls-2"><path class="cls-1" d="M962.57,218.18l-3.28,.22h-25.33v-5.9h25.33l1.96-.22,44.12-13.98,1.97-.87,37.13-33.42,.87-1.31,25.12-43.9,12.01-49.79-5.24-42.15-12.01-24.02,5.46-2.84,12.45,25.99,5.46,42.81-.22,1.09-12.23,51.32-26.86,46.52-.66,.66-38,34.07-3.06,1.31-44.99,14.41Z"/></g></g></svg>