<?xml version="1.0" encoding="UTF-8"?><svg id="Layer_2" xmlns="http://www.w3.org/2000/svg" viewBox="0 0 1016.77 258.93"><defs><style>.cls-1{font-size:54px;}.cls-1,.cls-2,.cls-3{fill:#1d1d1b;isolation:isolate;}.cls-1,.cls-3{font-family:AUTHENTICSans-90, 'AUTHENTIC Sans';}.cls-2{font-family:CirrusCumulus, CirrusCumulus;font-size:210px;}.cls-3{font-size:90px;}</style></defs><g id="Layer_1-2"><text class="cls-1" transform="translate(0 162)"><tspan x="0" y="0">From</tspan></text><text class="cls-3" transform="translate(131.38 210)"><tspan x="0" y="0"> </tspan></text><text class="cls-2" transform="translate(176.38 210)"><tspan x="0" y="0">( </tspan></text><text class="cls-1" transform="translate(299.02 162)"><tspan x="0" y="0">A</tspan></text><text class="cls-1" transform="translate(337.2 210)"><tspan x="0" y="0" xml:space="preserve">    </tspan></text><text class="cls-2" transform="translate(401.99 210)"><tspan x="0" y="0">)</tspan></text><text class="cls-3" transform="translate(473.18 210)"><tspan x="0" y="0"> </tspan></text><text class="cls-3" transform="translate(518.18 210)"><tspan x="0" y="0"> </tspan></text><text class="cls-1" transform="translate(545.18 162)"><tspan x="0" y="0">to</tspan></text><text class="cls-3" transform="translate(598.04 210)"><tspan x="0" y="0"> </tspan></text><text class="cls-2" transform="translate(643.04 210)"><tspan x="0" y="0">( </tspan></text><text class="cls-1" transform="translate(765.68 162)"><tspan x="0" y="0">X</tspan></text><text class="cls-1" transform="translate(801.59 210)"><tspan x="0" y="0" xml:space="preserve">   </tspan></text><text class="cls-1" transform="translate(850.19 198.02)"><tspan x="0" y="0"> </tspan></text><text class="cls-2" transform="translate(866.39 210)"><tspan x="0" y="0">)</tspan></text><text class="cls-1" transform="translate(1000.57 210)"><tspan x="0" y="0"> </tspan></text></g></svg>