<?xml version="1.0" encoding="UTF-8"?><svg id="Layer_2" xmlns="http://www.w3.org/2000/svg" viewBox="0 0 1030.58 258.93"><defs><style>.cls-1{stroke:#231f20;}.cls-1,.cls-2{stroke-miterlimit:10;stroke-width:2.5px;}.cls-1,.cls-2,.cls-3{fill:#231f20;}.cls-2{stroke:#000;}.cls-4{font-size:54px;}.cls-4,.cls-5,.cls-6{fill:#1d1d1b;isolation:isolate;}.cls-4,.cls-6{font-family:AUTHENTICSans-90, 'AUTHENTIC Sans';}.cls-5{font-family:CirrusCumulus, CirrusCumulus;font-size:210px;}.cls-6{font-size:90px;}</style></defs><g id="Layer_1-2"><text class="cls-4" transform="translate(0 162)"><tspan x="0" y="0">From</tspan></text><text class="cls-6" transform="translate(131.38 210)"><tspan x="0" y="0"> </tspan></text><text class="cls-5" transform="translate(176.38 210)"><tspan x="0" y="0">( </tspan></text><text class="cls-4" transform="translate(337.2 210)"><tspan x="0" y="0" xml:space="preserve">    </tspan></text><text class="cls-5" transform="translate(421.99 210)"><tspan x="0" y="0">)</tspan></text><text class="cls-6" transform="translate(473.18 210)"><tspan x="0" y="0"> </tspan></text><text class="cls-6" transform="translate(518.18 210)"><tspan x="0" y="0"> </tspan></text><text class="cls-4" transform="translate(545.18 162)"><tspan x="0" y="0">to</tspan></text><text class="cls-6" transform="translate(598.04 210)"><tspan x="0" y="0"> </tspan></text><text class="cls-5" transform="translate(643.04 200)"><tspan x="0" y="0">( </tspan></text><text class="cls-4" transform="translate(801.59 210)"><tspan x="0" y="0" xml:space="preserve">   </tspan></text><text class="cls-4" transform="translate(850.19 198.02)"><tspan x="0" y="0"> </tspan></text><text class="cls-5" transform="translate(896.39 210)"><tspan x="0" y="0">)</tspan></text><text class="cls-4" transform="translate(1000.57 210)"><tspan x="0" y="0"> </tspan></text><polygon class="cls-2" points="842.04 77.1 818.73 138.7 795.42 77.1 793.22 77.96 817.44 142.13 802.81 180.79 805.11 181.65 818.73 145.56 832.35 181.65 834.66 180.79 820.03 142.13 844.25 77.96 842.04 77.1"/><rect class="cls-3" x="499.84" y="217.56" width="2.03" height="4.16"/><path class="cls-1" d="M309.72,85.01h46.48v-2.3h-46.48v2.3h0Zm20.44,95.52l-4.28-5.51-.95-2.76-1.71-6.18v-8.36l2.47-8.08,4.56-6.27,4.47-3.33h9.5l4.75,3.42,4.47,6.08,2.76,8.27v8.27l-2.66,8.74-4.37,5.7-4.85,3.33h-9.6l-4.56-3.32Zm27.08-97.83v2.3h-1.05v65.39l-.57-1.71-.19-.38-4.56-6.37-.29-.29-5.23-3.52-.86-.29h-10.07l-.86,.29-4.85,3.52-.29,.29-4.66,6.37-.19,.48-2.66,8.55-.1,.38v8.36l.1,.38,2.28,8.08,1.24,2.47,3.99,5.04,.29,.29,4.85,3.52,.86,.29h10.07l.76-.29,5.23-3.52,.38-.29,4.56-5.89,.19-.48,.57-1.81v12.26h2.38V82.7h-1.32Z"/></g></svg>